<?xml version="1.0" encoding="UTF-8"?><svg id="a" xmlns="http://www.w3.org/2000/svg" viewBox="0 0 500 500"><rect x="17.12" y="411.38" width="465.76" height="69.9"/><path d="m18.54,346.94c77.65,15.83,231.09,51.39,231.46,53.61-2,2.08-219.06,1.27-232.88.64.47-18.12.91-34.74,1.42-54.25Z"/><path d="m24,273.07c75.95,40.63,225.76,125.17,226,127.48-2.1,1.42-217.01-69.14-230.66-74.21,1.56-17.79,2.98-34.11,4.66-53.27Z"/><path d="m33.84,201.67c72.77,64.65,216.06,196.51,216.16,198.88-2.17.73-210.76-138.22-223.97-147.63,2.61-17.12,5-32.82,7.81-51.25Z"/><path d="m47.88,134.12c68.19,87.41,202.17,264.05,202.12,266.43-2.19.03-200.42-204.62-212.94-218.18,3.61-16.11,6.93-30.9,10.81-48.25Z"/><path d="m65.83,71.74c62.28,108.48,184.36,326.47,184.17,328.81-2.17-.68-186.19-267.05-197.78-284.5,4.54-14.8,8.71-28.37,13.61-44.3Z"/><path d="m87.35,15.74c55.16,127.44,162.98,382.55,162.65,384.81-2.11-1.37-168.36-324.3-178.78-345.31,5.39-13.19,10.33-25.3,16.13-39.5Z"/><path d="m481.46,346.94c-77.65,15.83-231.09,51.39-231.46,53.61,2,2.08,219.06,1.27,232.88.64-.47-18.12-.91-34.74-1.42-54.25Z"/><path d="m476,273.07c-75.95,40.63-225.76,125.17-226,127.48,2.1,1.42,217.01-69.14,230.66-74.21-1.56-17.79-2.98-34.11-4.66-53.27Z"/><path d="m466.16,201.67c-72.77,64.65-216.06,196.51-216.16,198.88,2.17.73,210.76-138.22,223.97-147.63-2.61-17.12-5-32.82-7.81-51.25Z"/><path d="m452.12,134.12c-68.19,87.41-202.17,264.05-202.12,266.43,2.19.03,200.42-204.62,212.94-218.18-3.61-16.11-6.93-30.9-10.81-48.25Z"/><path d="m434.17,71.74c-62.28,108.48-184.36,326.47-184.17,328.81,2.17-.68,186.19-267.05,197.78-284.5-4.54-14.8-8.71-28.37-13.61-44.3Z"/><path d="m412.65,15.74c-55.16,127.44-162.98,382.55-162.65,384.81,2.11-1.37,168.36-324.3,178.78-345.31-5.39-13.19-10.33-25.3-16.13-39.5Z"/></svg>
