<?xml version="1.0" encoding="UTF-8"?>
<svg id="a" xmlns="http://www.w3.org/2000/svg" version="1.1" viewBox="0 0 500 500">
  <defs>
    <style>
      .cls-1 {
        fill: #000;
        stroke-width: 0px;
      }
    </style>
  </defs>
  <path class="cls-1" d="M37.7,148.6c-10.2-13.1-18.4-26.4-24.5-42.3-.9-2.4-1.7-4.9-2.2-8.2,8,4.4,15.5,10.7,25.1,13-9.7-18.4-18.1-36.1-20.3-58.6,9.1,13.2,18.1,26.3,29.2,35.6-4.2-12.9-8.9-25.2-9.8-40.7,3.6,2.4,5.2,6.4,7.3,9.7,23.6,38.2,50,70.9,82.9,89.9,14.7,8.5,29,17.4,41.9,31,11.3,11.9,24.6,14,38.3,12.2,3.2-.4,4.9-2.7,6-7.1,3.7-15.2,6.1-30.9,7-47,.3-5.2-.7-8.6-4.1-11-6.2-4.5-11.4-10.7-14.4-20.2-1.4-4.5-4.1-5.9-7.2-6.2-1-.1-2.3-.4-2.3-2.3,0-1,.7-2.3,1.3-3.1,3.1-4.1,7-5.3,11.1-5.6,6.3-.6,12.4,1.4,18.4,3.9,2.2.9,4.1,1.5,6.5,0,24.4-15.6,51.4,6.5,55.5,45.4.2,2.3.8,4.6.6,6.8-1.3,15.4,3.3,28.1,7.8,41,1.4,4.1,3.2,5.4,6.1,5.7,12.2,1.2,23.7-2.9,33.4-13.3,12.9-13.9,27.4-22.1,42-30.8,28.5-16.9,52.4-44.1,73.7-76.5,3.9-5.9,7.5-12,11.3-17.9,1-1.6,1.7-4,4-3.7-1,14.5-5.3,27-9.9,39.6,11.2-9.3,20.3-21.8,28.7-36.3,1.6,10.6-4.3,28.2-19.6,59.4,9-2.4,16.8-8.1,25-13-5.3,20.2-15.1,35.2-26.6,50.6,5.2-.5,3.4-1,7.2-1.2,1.5,0,3.4-.9,4.2,1.6.9,2.5-.8,4.2-1.6,6-7.4,15-11.4,25.8-22.4,34.4-.9.7-1.8,1.5-4.1,3.3,5.5.6,9.8,0,13.9,1.7,1.3.5,3.1-.1,3.6,2.3.5,2.3-1,3.6-2,4.9-7.6,9.8-16.5,16.8-25.7,22.6-1.4.9-3,.9-4.2,3.2,3,2.5,6.7,1.9,10.1,5.6-7.4,8.7-15.3,14.7-23.8,19.1.3,3.8,4.1,3.3,3.8,6.8-.3,3.7-2.7,5.8-4.4,8.3-3.3,4.9-7.4,8.3-11.6,11.5-2.3,1.8-3.7,3.3-2.2,7.5,2.1,5.5.4,9.2-2.9,11.9-3.5,2.8-7.3,4.8-11.1,6.4-1.4.6-3.6.9-3.4,3.8.9,9.7-4.2,12.6-8.2,16.6-4.2,4.1-8.8,7.1-13.8,8.4-3.3.8-5.1,2.8-5.8,8-1.3,9.2-6.5,11.3-11.9,11.8-3.1.3-5.2.9-5.7,6.4-.4,4.5-3.2,6.4-5.9,7.8-2.5,1.3-5.1,1.6-7.7,1.1-5.8-1.1-11.3-2.1-16.8,3.6-3.2,3.4-7.7,1.2-11.6-.2-7.6-2.8-11.6,1.4-12.8,13.1-.7,6.9-.4,14.2.7,21,4.6,27.4,19.3,46.5,19.3,46.5h-109.8s15.2-18.4,20-46.5c1.3-7.7,1.9-15.1.7-23-1.6-10.5-5.4-13.8-12.4-11.2-5.9,2.1-11.6,3.4-16.5-3.9-1.4-2.2-3.3-1-4.9-.6-3.9.9-7.9,1.9-11.9,1-4.3-.9-8.2-2.9-9.2-10.3-.5-4-2.3-4.5-4.5-4.7-6.7-.6-12.3-3.4-13.3-15.2-.3-3.9-2.8-4-4.8-4.6-6.3-2-12.2-5.5-17.4-11.3-3-3.3-5.9-6.4-5.1-13,.4-3.6-1.7-4-3.3-4.7-4-1.8-7.8-4.1-11.5-7-3.3-2.6-4.7-6.1-2.8-11.2,1.4-3.9.5-6-2-7.7-4.7-3.2-9-7.5-12.8-12.8-3.5-4.9-4.8-8.7,1.3-12.7-7.2-4.6-13.8-8.1-19.5-14.2-1.5-1.6-4.1-2.5-3.7-5.7.4-3.2,3-2.6,4.8-3.5,1.1-.6,2.2-1.1,3.8-1.8-1.6-3.1-3.8-3.5-5.6-4.6-8-5-15.6-11-22.3-19.2-1.5-1.9-4.3-3.2-3.8-6.6.6-4.1,3.8-2.8,5.8-3.3,3.4-.9,6.8-.9,11.3-1.3-7.5-6.5-14.4-12.2-20.3-19.8-4.5-5.7-2.6-12.3-6.3-19.1-2.4-4.3-7.1-6.5-3.5-6.3,4.2.2,8.4.6,13.9,1.1Z"/>
  <path class="cls-1" d="M248,413.8c-5.9.7-12-1.1-17.7-2.2-1.3-.3-2.5.1-3.8-.4-1.1-.4-1.9-1-3-1.1-2.8-.4-5.4-2.1-8.1-2.9-2-.6-4-1.3-5.9-2.2-2.1-.9-4.3-1.5-6.5-2.4-3.9-1.6-7.9-3-11.9-4.6-10-4-20.1-8-30.1-12.5-10-4.5-20.3-7.9-30.4-12.3-10-4.4-55.3-22.2-59.8-26.1-.9-.7-2.2-2.1-2.9-3.2-.6-1-1.9-5-2.3-6.1-.6-1.5-53-231-50.8-232.8,1.8-1.5,5.4,1.3,7.1,2,2.4.9,4.7,1.6,7,2.7,9.5,4.5,19.3,8.6,28.9,12.5,18.2,7.5,35.9,16.6,54.3,23.8,9.1,3.5,17.8,8.3,26.8,11.5,5.1,1.9,10.1,4.8,15.2,6.8,5.5,2.1,10.9,4.6,16.3,7.1,10.1,4.7,20.4,9,30.6,13.4,9.6,4.2,19.2,9,29,12.6,10.8,4,22.9,5.7,33.7,1.3,5.1-2.1,10.2-3.9,15.3-6.2,5.3-2.3,10.5-5.5,15.8-7.5,5.1-1.8,10.1-3.9,15-6.3,4.5-2.1,9-3.7,13.5-5.9,9.4-4.4,18.9-8.6,28.5-12.4,9.8-3.9,19.6-8.5,29.3-12.9,9.2-4.2,18.7-7.4,27.9-12,10-5,20.2-8.7,30.3-13.3,10.3-4.7,20.9-8.9,31.2-13.4,1.7-.7,13.4-6.9,13.3-2.4,0,.8-.8,2.4-1,3.4-.2,1.6-49.7,220.8-50.1,222.4-.3,1.6-1,3.1-1.4,4.7-1,3.8-2.5,6.1-4.6,8.5-4.1,4.4-8.9,6.5-13.7,8.5-4.7,2-9.6,3.4-14.2,5.6-4.9,2.3-9.9,3.8-14.7,6.2-4.9,2.4-10.2,4.1-15.2,6-9.8,3.7-19.4,8.3-29.2,11.8-5.2,1.9-10.1,4.7-15.3,6.5-5,1.7-10,3.8-14.9,6-9.9,4.3-20,7.7-29.7,11.9-5,2.1-10.1,2.5-15.2,4.1-2.7.9-5.4.6-8.2.9-2.9.3-5.7.6-8.6.6Z"/>
  <g>
    <path class="cls-1" d="M466.1,67.2c.9,0,7.9-.4,4.9,1.5-1.3.8-3.2,1.2-4.6,1.7-1.7.6-3.5,1.1-5.2,1.6-5.9,1.5-12,3.1-17.9,5-12,4-24.1,8-36.2,11.6-24.2,7.2-48,17.3-71.5,27.9-12.5,5.6-24.8,12.7-36.7,20.7-2.9,2-5.9,4.5-9,6-4.3,2.1-2-4.9-1.2-7.9.7-2.6,2.5-5.3,3.8-7.3,2-3.1,4.7-5.2,7.1-7.4,11.2-10,23.5-16,35.9-22.3,5.9-3,12-4.9,18-7.3,6.7-2.6,13.5-3.8,20.2-6.2,3.4-1.2,6.9-2.2,10.5-2.8,1.7-.3,3.3-1.2,5-1.4,1.9-.3,3.5-1.2,5.3-1.5,4-.7,8.1-1.5,12-2.7,1.6-.5,3.3-.4,4.9-.7,1.8-.3,3.4-1.2,5.3-1.4,4-.3,8-1.4,12-1.9,2.1-.3,4.2-1.2,6.3-1.4,1.7-.2,3.5-.1,5.2-.4,4.3-.7,8.5-1.3,12.8-1.9,4.4-.5,8.7-1.7,13.1-1.6Z"/>
    <path class="cls-1" d="M286.2,155.5c.5-4.7,4.5-6.9,7-8.4,3.3-2,6.6-4.6,9.9-6.7,7.3-4.7,14.7-9.8,22.3-13.1,3.5-1.5,6.9-3.9,10.5-5.3,3.1-1.3,6.2-3.1,9.3-4.5,3.5-1.5,6.9-3.5,10.5-4.9,3.2-1.3,6.6-2.6,9.7-4,6.3-2.9,12.8-5.2,19.1-7.7,6.6-2.6,13.5-4.3,20-7.3,2.7-1.3,5.7-1.7,8.5-2.9,1.6-.7,3.4-1.3,5-1.8,1.6-.5,3-1.1,4.5-1.6,6.8-2,13.6-4.1,20.4-6.3,3.7-1.2,7.3-2,11-3.3,1.7-.6,3.5-.8,5.2-1.4,1.8-.7,3.7-.7,5.5-1.5,3.4-1.4,6.9-2.1,10.4-2.8,4-.8,8-2.5,12.1-3,.7,0,3.9-1.5,3.9.1,0,1.7-3.6,2.4-4.3,2.7-3.8,1.6-7.7,2.5-11.4,4.2-3.1,1.3-6.3,2.2-9.3,3.6-2.9,1.3-5.9,2.2-8.8,3.1-7.4,2.4-14.7,5.9-22.1,8.5-7.5,2.7-15,5.5-22.4,8.6-6.4,2.7-12.9,4.8-19.3,7.6-6.6,2.9-13.4,5-19.9,8.4-6.7,3.4-13.6,5.9-20.4,9.1-6.8,3.2-13.7,6.9-20.4,10.3-13.8,7-27.2,15.1-40.6,23.5-1.1.7-2.8,2.2-4,1.4-.8-.6-2-3.3-1.9-4.6Z"/>
    <path class="cls-1" d="M488.4,88.3c-1.9,2.4-4.2,2.9-6.6,3.9-2.4,1.1-4.8,2.2-7.2,3.5-4.7,2.5-9.6,4.4-14.3,6.6-7.9,3.7-15.8,7.3-23.6,10.7-8.2,3.6-16.4,8.2-24.8,11.5-1,.4-1.8,1-2.8,1.5-.9.5-1.8.4-2.6.8-2.3,1-4.7,2.3-7.1,3.4-4.4,2.1-8.7,4.5-13.2,6.2-4.5,1.7-9,4.2-13.5,6.2-2.5,1.1-4.9,2.5-7.4,3.5-2.5,1-5.4,3.1-8,3.3-1.3,1.5-3.7,2.1-5.3,2.6-2.1.7-4.1,1.7-6.1,2.7-3.5,1.7-6.9,3.4-10.4,5-4.4,2-8.9,3.8-13.2,6-2.1,1.1-4.3,2-6.4,3-2.1,1-4.3,2.1-6.4,3-2.1.8-4.1,1.8-6.1,2.6-1.2.5-4.7,3.1-5.8,1.6-1-1.4,2.2-2.8,3.1-3.3,1.9-1.3,3.8-2.6,5.7-3.8,8.4-5.4,17.2-9.6,25.6-14.8,16.8-10.3,34.5-17.3,51.8-25.6,16.1-7.6,32.6-13.9,48.9-20.5,9.7-3.9,19.9-6.6,29.6-11,4-1.8,8.4-2.6,12.3-4.5,2.2-1.1,4.5-1.7,6.7-2.7,1.2-.5,2.3-.7,3.5-1.1,1.1-.3,2.4-1.4,3.6-.4Z"/>
    <path class="cls-1" d="M440,98.1c-.9.3-1.8,1.3-2.7,1.8-1.2.7-2.5,1.6-3.7,1.9-2.4.8-4.9,1.9-7.3,3-4.9,2.4-10,4.4-15,6.5-5.2,2.2-10.4,4.3-15.6,6.7-5.5,2.5-11.2,5.4-16.9,7.3-5.2,1.8-10.5,4.6-15.6,7.1-4.6,2.2-9.2,4.2-13.8,6.5-9.8,4.9-19.9,9.2-29.6,14.6-5.3,2.9-10.6,5.9-15.9,8.8-2,1.1-4,2.1-5.8,3.4-1.2.9-2.5,1.5-3.7,2.1-.5.2-3.3,2-3.7,1.6-.9-.8,3.2-4.2,3.9-4.7,2.5-1.9,5.1-3.7,7.7-5.5,5.3-3.5,10.5-7.1,15.9-10.3,8.5-5,17.1-9.6,25.6-13.9,9.6-4.9,19.5-8.6,29.3-13.2,2.8-1.3,5.7-2.2,8.5-3.5,2.9-1.3,5.9-2.5,8.8-3.7,4.9-2,10-3.6,15-5.6,5.8-2.3,11.7-4.6,17.6-6.3,2.9-.9,5.8-2.1,8.7-2.9,1.5-.4,2.8-1,4.3-1.3,1.1-.2,3.2-1.5,4.1-.5Z"/>
  </g>
  <g>
    <path class="cls-1" d="M33.9,68.4c-.9,0-7.9-.4-4.9,1.5,1.3.8,3.2,1.2,4.6,1.7,1.7.6,3.5,1.1,5.2,1.6,5.9,1.5,12,3.1,17.9,5,12,4,24.1,8,36.2,11.6,24.2,7.2,48,17.3,71.5,27.9,12.5,5.6,24.8,12.7,36.7,20.7,2.9,2,5.9,4.5,9,6,4.3,2.1,2-4.9,1.2-7.9-.7-2.6-2.5-5.3-3.8-7.3-2-3.1-4.7-5.2-7.1-7.4-11.2-10-23.5-16-35.9-22.3-5.9-3-12-4.9-18-7.3-6.7-2.6-13.5-3.8-20.2-6.2-3.4-1.2-6.9-2.2-10.5-2.8-1.7-.3-3.3-1.2-5-1.4-1.9-.3-3.5-1.2-5.3-1.5-4-.7-8.1-1.5-12-2.7-1.6-.5-3.3-.4-4.9-.7-1.8-.3-3.4-1.2-5.3-1.4-4-.3-8-1.4-12-1.9-2.1-.3-4.2-1.2-6.3-1.4-1.7-.2-3.5-.1-5.2-.4-4.3-.7-8.5-1.3-12.8-1.9-4.4-.5-8.7-1.7-13.1-1.6Z"/>
    <path class="cls-1" d="M213.8,156.7c-.5-4.7-4.5-6.9-7-8.4-3.3-2-6.6-4.6-9.9-6.7-7.3-4.7-14.7-9.8-22.3-13.1-3.5-1.5-6.9-3.9-10.5-5.3-3.1-1.3-6.2-3.1-9.3-4.5-3.5-1.5-6.9-3.5-10.5-4.9-3.2-1.3-6.6-2.6-9.7-4-6.3-2.9-12.8-5.2-19.1-7.7-6.6-2.6-13.5-4.3-20-7.3-2.7-1.3-5.7-1.7-8.5-2.9-1.6-.7-3.4-1.3-5-1.8-1.6-.5-3-1.1-4.5-1.6-6.8-2-13.6-4.1-20.4-6.3-3.7-1.2-7.3-2-11-3.3-1.7-.6-3.5-.8-5.2-1.4-1.8-.7-3.7-.7-5.5-1.5-3.4-1.4-6.9-2.1-10.4-2.8-4-.8-8-2.5-12.1-3-.7,0-3.9-1.5-3.9.1,0,1.7,3.6,2.4,4.3,2.7,3.8,1.6,7.7,2.5,11.4,4.2,3.1,1.3,6.3,2.2,9.3,3.6,2.9,1.3,5.9,2.2,8.8,3.1,7.4,2.4,14.7,5.9,22.1,8.5,7.5,2.7,15,5.5,22.4,8.6,6.4,2.7,12.9,4.8,19.3,7.6,6.6,2.9,13.4,5,19.9,8.4,6.7,3.4,13.6,5.9,20.4,9.1,6.8,3.2,13.7,6.9,20.4,10.3,13.8,7,27.2,15.1,40.6,23.5,1.1.7,2.8,2.2,4,1.4.8-.6,2-3.3,1.9-4.6Z"/>
    <path class="cls-1" d="M11.6,89.5c1.9,2.4,4.2,2.9,6.6,3.9,2.4,1.1,4.8,2.2,7.2,3.5,4.7,2.5,9.6,4.4,14.3,6.6,7.9,3.7,15.8,7.3,23.6,10.7,8.2,3.6,16.4,8.2,24.8,11.5,1,.4,1.8,1,2.8,1.5.9.5,1.8.4,2.6.8,2.3,1,4.7,2.3,7.1,3.4,4.4,2.1,8.7,4.5,13.2,6.2,4.5,1.7,9,4.2,13.5,6.2,2.5,1.1,4.9,2.5,7.4,3.5,2.5,1,5.4,3.1,8,3.3,1.3,1.5,3.7,2.1,5.3,2.6,2.1.7,4.1,1.7,6.1,2.7,3.5,1.7,6.9,3.4,10.4,5,4.4,2,8.9,3.8,13.2,6,2.1,1.1,4.3,2,6.4,3,2.1,1,4.3,2.1,6.4,3,2.1.8,4.1,1.8,6.1,2.6,1.2.5,4.7,3.1,5.8,1.6,1-1.4-2.2-2.8-3.1-3.3-1.9-1.3-3.8-2.6-5.7-3.8-8.4-5.4-17.2-9.6-25.6-14.8-16.8-10.3-34.5-17.3-51.8-25.6-16.1-7.6-32.6-13.9-48.9-20.5-9.7-3.9-19.9-6.6-29.6-11-4-1.8-8.4-2.6-12.3-4.5-2.2-1.1-4.5-1.7-6.7-2.7-1.2-.5-2.3-.7-3.5-1.1-1.1-.3-2.4-1.4-3.6-.4Z"/>
    <path class="cls-1" d="M60,99.3c.9.3,1.8,1.3,2.7,1.8,1.2.7,2.5,1.6,3.7,1.9,2.4.8,4.9,1.9,7.3,3,4.9,2.4,10,4.4,15,6.5,5.2,2.2,10.4,4.3,15.6,6.7,5.5,2.5,11.2,5.4,16.9,7.3,5.2,1.8,10.5,4.6,15.6,7.1,4.6,2.2,9.2,4.2,13.8,6.5,9.8,4.9,19.9,9.2,29.6,14.6,5.3,2.9,10.6,5.9,15.9,8.8,2,1.1,4,2.1,5.8,3.4,1.2.9,2.5,1.5,3.7,2.1.5.2,3.3,2,3.7,1.6.9-.8-3.2-4.2-3.9-4.7-2.5-1.9-5.1-3.7-7.7-5.5-5.3-3.5-10.5-7.1-15.9-10.3-8.5-5-17.1-9.6-25.6-13.9-9.6-4.9-19.5-8.6-29.3-13.2-2.8-1.3-5.7-2.2-8.5-3.5-2.9-1.3-5.9-2.5-8.8-3.7-4.9-2-10-3.6-15-5.6-5.8-2.3-11.7-4.6-17.6-6.3-2.9-.9-5.8-2.1-8.7-2.9-1.5-.4-2.8-1-4.3-1.3-1.1-.2-3.2-1.5-4.1-.5Z"/>
  </g>
</svg>