<?xml version="1.0" encoding="UTF-8"?>
<svg enable-background="new 0 0 433.5 106" version="1.1" viewBox="0 0 433.5 106" xml:space="preserve" xmlns="http://www.w3.org/2000/svg">
<style type="text/css">
	.st0{fill:#EDEDED;}
	.st1{fill:#FFFFFF;}
	.st2{fill:#E5E5E5;}
	.st3{font-family:'ArialMT';}
	.st4{font-size:24px;}
</style>

	<path class="st0" d="m73.4 66.8s-4.5 3.9-4.5 7.3 2 5 4.5 5 4.5-1.6 4.5-5c0-3.5-4.5-7.3-4.5-7.3z"/>
	<path class="st0" d="m54.4 53.3h14v7.8c0 1.9 1.5 3.4 3.4 3.4h2.8c1.9 0 3.4-1.5 3.4-3.4v-13.9c0-1.8-1.5-3.3-3.3-3.3h-20.3v-11.6h2.3v-4.1h-9.5v-10.8l-1-0.5c-5.2-2.6-10.4-3.9-15.6-3.9-11 0-20.8 5.8-26.3 15.5-3 5.3-4.4 11.3-4.2 17.4 0.2 6.8 2.3 13.5 6.2 20 0.8 1.2 1.9 1.8 3.1 1.8 0.9 0 1.7-0.3 2.3-1 0.7-0.7 1-1.7 1-2.9v-0.5l-0.2-0.4c-3.5-5.2-5.2-10.8-5.5-16.4-0.2-5.1 1-10 3.3-14.2 2.2-4 5.6-7.3 9.6-9.5l13.7 13.7v7.3h-0.4c-1.8 0-3.3 1.5-3.3 3.3v2.9c0 1.8 1.5 3.3 3.3 3.3h0.4v37.8h-22.7v4.8h67.1v-4.8h-23.6v-37.8zm-27.8-32.8c1.4-0.3 2.8-0.4 4.3-0.4 3.7 0 7.5 0.8 11.3 2.5v5.6h-7.9l-7.7-7.7z"/>


	<path class="st1" d="m136 64.7h-6.9l-6.5-23c-0.3-1-0.6-2.4-1.1-4.3-0.4-1.9-0.7-3.2-0.8-3.9-0.2 1.1-0.5 2.6-0.9 4.4s-0.7 3.1-1 4l-6.4 22.9h-6.9l-5-19.3-5.1-19.2h6.4l5.5 22.5c0.9 3.6 1.5 6.8 1.8 9.5 0.2-1.5 0.5-3.2 0.9-5s0.7-3.3 1.1-4.5l6.3-22.5h6.2l6.4 22.6c0.6 2.1 1.3 5.2 2 9.4 0.3-2.5 0.9-5.7 1.9-9.6l5.5-22.4h6.4l-9.8 38.4z"/>
	<path class="st1" d="m173.3 64.7h-21.8v-38.6h21.8v5.3h-15.5v10.5h14.5v5.3h-14.5v12.1h15.5v5.4z"/>
	<path class="st1" d="M181.7,64.7V26.1h6.3v33.1h16.3v5.4H181.7z"/>
	<path class="st1" d="M210.9,64.7V26.1h6.3v33.1h16.3v5.4H210.9z"/>
	<path class="st1" d="m262.4 54.2c0 3.4-1.2 6.1-3.7 8.1s-5.9 2.9-10.3 2.9-7.9-0.7-10.7-2v-6c1.8 0.8 3.6 1.5 5.6 2s3.8 0.7 5.5 0.7c2.5 0 4.3-0.5 5.5-1.4s1.8-2.2 1.8-3.8c0-1.4-0.5-2.7-1.6-3.7s-3.3-2.2-6.7-3.6c-3.5-1.4-6-3-7.4-4.9-1.4-1.8-2.2-4-2.2-6.6 0-3.2 1.1-5.7 3.4-7.6 2.3-1.8 5.4-2.8 9.2-2.8 3.7 0 7.4 0.8 11 2.4l-2 5.1c-3.4-1.4-6.5-2.2-9.2-2.2-2 0-3.6 0.4-4.6 1.3-1.1 0.9-1.6 2.1-1.6 3.5 0 1 0.2 1.9 0.6 2.6s1.1 1.4 2.1 2 2.7 1.5 5.2 2.5c2.8 1.2 4.9 2.3 6.2 3.3s2.3 2.2 2.9 3.5c0.7 1.4 1 3 1 4.7z"/>
	<path class="st1" d="m295.4 37.8c0 4-1.3 7.1-4 9.3-2.6 2.1-6.4 3.2-11.3 3.2h-4v14.4h-6.3v-38.6h11.2c4.8 0 8.4 1 10.8 3 2.4 1.9 3.6 4.8 3.6 8.7zm-19.2 7.1h3.3c3.2 0 5.6-0.6 7.1-1.7s2.3-2.9 2.3-5.3c0-2.2-0.7-3.9-2-5-1.4-1.1-3.5-1.6-6.3-1.6h-4.4v13.6z"/>
	<path class="st1" d="m309.4 49.3v15.4h-6.3v-38.6h10.9c5 0 8.7 0.9 11 2.8 2.4 1.9 3.6 4.7 3.6 8.4 0 4.8-2.5 8.2-7.5 10.3l10.9 17.1h-7.2l-9.2-15.4h-6.2zm0-5.3h4.4c2.9 0 5.1-0.5 6.4-1.6s2-2.7 2-4.9-0.7-3.7-2.1-4.7c-1.4-0.9-3.6-1.4-6.4-1.4h-4.2v12.6z"/>
	<path class="st1" d="m337.6 64.7v-38.6h6.3v38.5h-6.3z"/>
	<path class="st1" d="m386.2 64.7h-7.7l-19-30.7h-0.2l0.1 1.7c0.2 3.3 0.4 6.3 0.4 9v20h-5.7v-38.6h7.6l18.9 30.6h0.2c0-0.4-0.1-1.9-0.2-4.4s-0.2-4.5-0.2-5.9v-20.3h5.8v38.6z"/>
	<path class="st1" d="m412.2 43.8h14.2v19.4c-2.3 0.8-4.5 1.3-6.7 1.6-2.1 0.3-4.4 0.5-6.9 0.5-5.8 0-10.3-1.7-13.5-5.2s-4.7-8.3-4.7-14.6c0-6.2 1.8-11.1 5.4-14.6s8.5-5.3 14.7-5.3c4 0 7.8 0.8 11.4 2.3l-2.2 5.2c-3.1-1.4-6.3-2.2-9.4-2.2-4.1 0-7.4 1.3-9.8 3.9s-3.6 6.1-3.6 10.6c0 4.7 1.1 8.3 3.2 10.7 2.2 2.5 5.3 3.7 9.3 3.7 2 0 4.2-0.3 6.5-0.8v-9.9h-8v-5.3z"/>

<text class="st2 st3 st4" transform="translate(104.99 98.722)">v1.0.0</text>
</svg>
